HIERARCHY
ROOT Hips
{
    OFFSET 0.000000 0.000000 0.000000
    CHANNELS 6 Xposition Yposition Zposition Zrotation Xrotation Yrotation
    JOINT Spine
    {
        OFFSET -0.000000 8.834163 0.000000
        CHANNELS 3 Zrotation Xrotation Yrotation
        JOINT Spine1
        {
            OFFSET -0.000000 17.855492 0.000000
            CHANNELS 3 Zrotation Xrotation Yrotation
            JOINT Neck
            {
                OFFSET -0.000000 17.782162 1.616560
                CHANNELS 3 Zrotation Xrotation Yrotation
                JOINT Head
                {
                    OFFSET -0.000000 15.082717 -2.154674
                    CHANNELS 3 Zrotation Xrotation Yrotation
                    End Site
                    {
                        OFFSET -0.000000 26.933422 0.000000
                    }
                }
            }
            JOINT LeftShoulder
            {
                OFFSET 4.280775 15.989452 -0.632416
                CHANNELS 3 Zrotation Xrotation Yrotation
                JOINT LeftArm
                {
                    OFFSET 11.735877 0.000000 0.000000
                    CHANNELS 3 Zrotation Xrotation Yrotation
                    JOINT LeftForeArm
                    {
                        OFFSET 33.149986 0.000000 0.000000
                        CHANNELS 3 Zrotation Xrotation Yrotation
                        JOINT LeftHand
                        {
                            OFFSET 28.572401 0.000000 0.000000
                            CHANNELS 3 Zrotation Xrotation Yrotation
                            End Site
                            {
                                OFFSET 16.160055 0.000000 0.000000
                            }
                        }
                    }
                }
            }
            JOINT RightShoulder
            {
                OFFSET -4.290631 15.989452 -0.632416
                CHANNELS 3 Zrotation Xrotation Yrotation
                JOINT RightArm
                {
                    OFFSET -11.735877 0.000000 0.000000
                    CHANNELS 3 Zrotation Xrotation Yrotation
                    JOINT RightForeArm
                    {
                        OFFSET -33.149986 0.000000 0.000000
                        CHANNELS 3 Zrotation Xrotation Yrotation
                        JOINT RightHand
                        {
                            OFFSET -28.572401 0.000000 0.000000
                            CHANNELS 3 Zrotation Xrotation Yrotation
                            End Site
                            {
                                OFFSET -16.160055 0.000000 0.000000
                            }
                        }
                    }
                }
            }
        }
    }
    JOINT LeftUpLeg
    {
        OFFSET 10.773369 0.000000 0.000000
        CHANNELS 3 Zrotation Xrotation Yrotation
        JOINT LeftLeg
        {
            OFFSET -0.000000 -54.062664 0.000000
            CHANNELS 3 Zrotation Xrotation Yrotation
            JOINT LeftFoot
            {
                OFFSET -0.000000 -48.941059 0.000000
                CHANNELS 3 Zrotation Xrotation Yrotation
                JOINT LeftToeBase
                {
                    OFFSET -0.000000 -7.002690 16.160055
                    CHANNELS 3 Zrotation Xrotation Yrotation
                    End Site
                    {
                        OFFSET -0.000000 0.000000 4.309348
                    }
                }
            }
        }
    }
    JOINT RightUpLeg
    {
        OFFSET -10.773369 0.000000 0.000000
        CHANNELS 3 Zrotation Xrotation Yrotation
        JOINT RightLeg
        {
            OFFSET -0.000000 -54.062664 0.000000
            CHANNELS 3 Zrotation Xrotation Yrotation
            JOINT RightFoot
            {
                OFFSET -0.000000 -48.941059 0.000000
                CHANNELS 3 Zrotation Xrotation Yrotation
                JOINT RightToeBase
                {
                    OFFSET -0.000000 -7.002690 16.160055
                    CHANNELS 3 Zrotation Xrotation Yrotation
                    End Site
                    {
                        OFFSET -0.000000 0.000000 4.309348
                    }
                }
            }
        }
    }
}
MOTION
Frames:    8
Frame Time:    0.008333
-1.015333    106.744751    14.373796    -0.468193    -4.246182    -77.143501    -6.543755    -24.677246    -5.153624    4.119711    20.644583    -4.471402    4.574759    31.670376    5.143920    -9.968842    -13.301224    3.505694    16.828913    -1.296667    11.867142    -16.179760    -2.083045    -15.771111    0.451247    -8.491236    -1.352766    7.693924    -8.140931    5.182079    -16.527885    -2.638692    3.125843    11.988653    -13.905132    12.244823    -0.960194    0.256611    -2.689625    -13.301044    1.104995    -7.457874    1.582061    3.321941    -3.730466    -0.634136    11.987704    2.453320    -2.965405    -20.577888    8.252011    0.000000    0.000000    0.000000    -2.226491    10.473979    -3.646589    -1.794061    2.016214    1.133189    -11.958380    -19.196095    -26.870090    0.000000    0.000000    0.000000    
-1.060110    106.770660    14.489120    -0.512977    -4.220664    -77.184631    -6.587875    -24.695934    -5.146763    4.156825    20.623880    -4.459724    4.104701    31.608913    5.236716    -9.266939    -13.256015    3.711116    16.810797    -1.227593    11.863626    -16.232346    -2.043159    -15.785172    0.424413    -8.552716    -1.480811    7.904244    -8.189229    5.234797    -16.492306    -2.585781    3.125761    12.004626    -13.843212    12.208685    -1.052098    0.215808    -2.614781    -13.283613    1.081235    -7.624871    1.507116    3.609812    -3.890889    -0.528463    11.542845    2.805533    -3.044990    -20.420218    8.070785    0.000000    0.000000    0.000000    -2.232766    10.509452    -3.684003    -1.846292    2.057387    1.035171    -11.739076    -19.198927    -26.671442    0.000000    0.000000    0.000000    
-1.087159    106.799660    14.605519    -0.529777    -4.203567    -77.213257    -6.650066    -24.733999    -5.120601    4.173317    20.663960    -4.422081    4.725940    31.583447    5.094258    -10.057671    -13.135896    3.464041    16.883511    -1.281124    11.863502    -16.299839    -1.864182    -15.783872    0.420100    -8.685348    -1.620555    7.829829    -8.317203    5.348553    -16.460838    -2.633793    2.997936    12.025633    -13.840267    12.202100    -1.017011    0.215772    -2.557458    -13.289123    1.078725    -7.592568    1.425992    3.840997    -3.922568    -0.425809    11.137472    3.057504    -3.110452    -20.253550    7.882418    0.000000    0.000000    0.000000    -2.269773    10.518345    -3.744300    -1.857891    2.094601    1.014951    -11.572238    -19.178259    -26.544657    0.000000    0.000000    0.000000    
-1.114040    106.824371    14.698408    -0.577651    -4.161075    -77.265434    -6.713480    -24.720669    -5.101273    4.305900    20.663271    -4.413801    4.645010    31.524927    5.061053    -10.001686    -13.088573    3.432514    16.832678    -1.265961    11.902235    -16.338140    -1.873892    -15.868705    0.405592    -8.594336    -1.609075    7.631632    -8.246899    5.176826    -16.577269    -2.622228    2.836987    12.140335    -14.070241    12.372276    -0.899343    0.328758    -2.696826    -13.346085    1.195458    -7.577701    1.426798    4.103533    -3.934093    -0.397659    10.698104    3.214298    -3.115931    -20.106487    7.770938    0.000000    0.000000    0.000000    -2.255585    10.531268    -3.780074    -1.897657    2.164592    1.082736    -11.397364    -19.158360    -26.503017    0.000000    0.000000    0.000000    
-1.140416    106.852341    14.816144    -0.619084    -4.134060    -77.323967    -6.721707    -24.724300    -5.081353    4.319555    20.673468    -4.394759    4.134216    31.351263    5.186055    -9.278029    -12.960090    3.671992    16.818012    -1.235910    11.963997    -16.381054    -1.788713    -15.899535    0.370192    -8.657825    -1.757449    7.701137    -8.303210    5.238925    -16.590841    -2.626624    2.799691    12.162663    -13.897882    12.348386    -0.940918    0.245683    -2.635715    -13.289614    1.120265    -7.680006    1.393967    4.354064    -4.008327    -0.376335    10.308194    3.424790    -3.144486    -19.952553    7.679801    0.000000    0.000000    0.000000    -2.284792    10.552382    -3.711700    -1.906851    2.212802    0.979564    -11.230634    -19.137070    -26.388603    0.000000    0.000000    0.000000    
-1.156765    106.884407    14.946063    -0.630896    -4.147916    -77.418404    -6.672240    -24.754883    -5.051313    4.171542    20.661171    -4.346225    4.605196    31.446409    5.106055    -9.969656    -12.961440    3.488449    16.846674    -1.129142    12.100190    -16.386494    -1.727688    -15.996910    0.324970    -8.718011    -1.811795    7.749662    -8.356586    5.316278    -16.601273    -2.621198    2.867912    12.197825    -13.898411    12.288250    -0.851828    0.247061    -2.630568    -13.296731    1.107379    -7.538309    1.350612    4.588371    -4.222905    -0.493260    9.905922    3.778150    -3.056547    -19.765100    7.675865    0.000000    0.000000    0.000000    -2.378009    10.545371    -3.683038    -1.915879    2.265013    1.042111    -11.198265    -19.080391    -26.381647    0.000000    0.000000    0.000000    
-1.175514    106.910683    15.056520    -0.673104    -4.109891    -77.477463    -6.644497    -24.680635    -4.980882    4.096937    20.553493    -4.268817    4.821743    31.445459    5.008700    -10.095510    -12.881615    3.394472    16.921677    -1.111748    12.052448    -16.429806    -1.590366    -15.990076    0.305623    -8.787912    -1.884917    7.900613    -8.420974    5.297573    -16.498079    -2.594447    2.758425    12.208383    -13.994036    12.352284    -0.823594    0.329643    -2.781514    -13.139514    1.150024    -7.285858    1.334469    4.786292    -4.119504    -0.456002    9.618631    3.790628    -3.032176    -19.650160    7.613529    0.000000    0.000000    0.000000    -2.389694    10.585909    -3.772015    -1.939090    2.253894    1.103002    -10.920747    -19.047777    -26.236084    0.000000    0.000000    0.000000    
-1.190993    106.926689    15.150488    -0.703783    -4.051428    -77.533562    -6.722367    -24.638208    -4.962607    4.300271    20.482353    -4.270217    4.291092    31.322172    5.114346    -9.456256    -12.779531    3.588710    16.796671    -1.023333    12.062774    -16.465509    -1.714372    -16.095549    0.295636    -8.691559    -1.821927    7.685654    -8.342565    5.180141    -16.633024    -2.532604    2.611626    12.286707    -13.952188    12.460085    -0.848641    0.299783    -2.796786    -13.240685    1.158963    -7.569986    1.294141    4.911877    -3.772761    -0.281216    9.452639    3.597071    -3.114159    -19.600683    7.494520    0.000000    0.000000    0.000000    -2.377645    10.602111    -3.760502    -1.950876    2.259138    1.098422    -10.783071    -19.012733    -26.167738    0.000000    0.000000    0.000000    
